<?xml version="1.0" encoding="utf-8"?>
<!-- Generator: Adobe Illustrator 18.1.1, SVG Export Plug-In . SVG Version: 6.00 Build 0)  -->
<svg version="1.1" id="logo" xmlns="http://www.w3.org/2000/svg" xmlns:xlink="http://www.w3.org/1999/xlink" x="0px" y="0px"
	 viewBox="0 0 200 86.9" enable-background="new 0 0 200 86.9" xml:space="preserve">
<rect x="0" y="0" fill="#CE1126" width="200" height="86.9"/>
<g>
	<path fill="#FFFFFF" d="M23.1,50.5v-2.1h0.5c3,0,4.7-1.4,4.7-3.9V22c0-2.5-1.7-3.9-4.7-3.9h-0.5V16h16v2.2h-0.5
		c-3,0-4.7,1.3-4.7,3.9v8.2c0,0.6,0.2,0.9,0.8,0.9h0.8l10.7-8.9c1.1-0.9,1.7-1.8,1.7-2.7s-0.6-1.3-1.8-1.3h-1.8V16h13.4v2.2
		c-2.2,0.2-3.1,0.5-4.4,1.6l-13.2,11l15.6,15.8c1.1,1.1,2.5,1.8,3.7,1.8h0.9v2.2h-8.9L36.1,33.7h-1.4c-0.6,0-0.8,0.2-0.8,0.9v9.9
		c0,2.5,1.7,3.9,4.7,3.9h0.5v2.1H23.1z"/>
	<path fill="#FFFFFF" d="M79.4,34.5v-2.8c0-4.2-2.4-6.7-6.5-6.7c-4.8,0-7.5,3.2-7.5,8.8v0.7H79.4z M65.5,36.7v1.8
		c0,7,2.6,10.3,8.1,10.3c4.2,0,7.1-1.9,8.6-5.6h1.1l1.3,0.9v0.7c-2.2,4.2-6,6.2-11.6,6.2c-8.9,0-13.2-4.6-13.2-14.2
		c0-5,1-8.1,3.4-10.4c2.4-2.4,5.2-3.3,9.9-3.3c8.2,0,11.6,2.9,11.6,9.9v3.9H65.5z"/>
	<path fill="#FFFFFF" d="M107.3,34.5v-2.8c0-4.2-2.4-6.7-6.5-6.7c-4.8,0-7.5,3.2-7.5,8.8v0.7H107.3z M93.4,36.7v1.8
		c0,7,2.6,10.3,8.1,10.3c4.2,0,7.1-1.9,8.6-5.6h1.1l1.3,0.9v0.7c-2.2,4.2-6,6.2-11.6,6.2c-8.9,0-13.2-4.6-13.2-14.2
		c0-5,1-8.1,3.4-10.4c2.4-2.4,5.2-3.3,9.9-3.3c8.2,0,11.6,2.9,11.6,9.9v3.9H93.4z"/>
	<path fill="#FFFFFF" d="M124.1,27.6c1.4-3,4.8-4.7,9.1-4.7c6.1,0,10,3.2,10,8.2v13.8c0,2.7,1.1,3.7,4.1,3.9v1.7H134v-1.7
		c3-0.2,4.1-1.2,4.1-3.9V32.3c0-4.1-2.3-6.5-6.4-6.5c-4.8,0-7.6,3.4-7.6,9.1v9.9c0,2.7,1.1,3.7,4.1,3.9v1.7h-13.4v-1.7
		c3-0.2,4.1-1.2,4.1-3.9V29.4c0-2.7-1.2-3.8-4.1-3.9v-1.8c4.1-0.2,5-0.2,9.3-0.8V27.6z"/>
	<path fill="#FFFFFF" d="M167.6,34.5v-2.8c0-4.2-2.4-6.7-6.5-6.7c-4.8,0-7.5,3.2-7.5,8.8v0.7H167.6z M153.6,36.7v1.8
		c0,7,2.6,10.3,8.1,10.3c4.2,0,7.1-1.9,8.6-5.6h1.1l1.3,0.9v0.7c-2.2,4.2-6,6.2-11.6,6.2c-8.9,0-13.2-4.6-13.2-14.2
		c0-5,1-8.1,3.4-10.4c2.4-2.4,5.2-3.3,9.9-3.3c8.2,0,11.6,2.9,11.6,9.9v3.9H153.6z"/>
	<path fill="#FFFFFF" d="M22.9,69v-4H24c0.2,1.5,0.2,1.7,0.6,2.3c0.4,0.7,1.2,1,2.3,1c1.6,0,2.4-0.7,2.4-2.1c0-0.9-0.4-1.4-1.6-1.8
		l-2.7-1c-1-0.4-1.7-1.4-1.7-2.6c0-1.8,1.3-2.8,3.6-2.8c1,0,1.6,0.1,2.2,0.5l0.5-0.4h0.8v3.3h-1.1c0-0.3-0.1-0.5-0.1-0.7
		c-0.2-1.4-0.7-2-2.1-2c-1.2,0-1.9,0.6-1.9,1.7c0,0.9,0.4,1.3,1.7,1.7l2.4,0.9c1.2,0.4,1.9,1.4,1.9,2.8c0,1-0.4,1.9-1.1,2.4
		c-0.8,0.6-1.6,0.8-3.1,0.8c-1.4,0-2.1-0.2-2.7-0.7L23.7,69H22.9z"/>
	<path fill="#FFFFFF" d="M34.4,61.6h-1.1l0.3-3.3h10l0.3,3.3h-1.1c-0.4-2-0.7-2.5-1.5-2.5h-1.3c-0.4,0-0.5,0.2-0.5,0.6V67
		c0,0.8,0.5,1.2,1.4,1.2h0.3v0.7h-5.2v-0.7h0.3c0.9,0,1.4-0.4,1.4-1.2v-7.3c0-0.5-0.1-0.6-0.4-0.6h-1.3C35,59,34.6,59.6,34.4,61.6"
		/>
	<path fill="#FFFFFF" d="M48.6,64.2H52l-1.6-4.4L48.6,64.2z M44.2,68.8v-0.7h0.3c0.7,0,1.1-0.3,1.5-1l4.4-9h1.3l3.5,9
		c0.3,0.7,0.8,1,1.6,1h0.1v0.7h-5.1v-0.7h0.5c0.6,0,0.9-0.3,0.9-0.7c0-0.1,0-0.2-0.1-0.3L52.3,65h-4.1l-0.9,2.1
		c0,0.1-0.1,0.2-0.1,0.3c0,0.5,0.4,0.7,1.1,0.7h0.3v0.7H44.2z"/>
	<path fill="#FFFFFF" d="M58.7,61.6h-1.1l0.3-3.3h10l0.3,3.3h-1.1c-0.4-2-0.7-2.5-1.5-2.5h-1.3c-0.4,0-0.5,0.2-0.5,0.6V67
		c0,0.8,0.5,1.2,1.4,1.2h0.3v0.7h-5.2v-0.7h0.3c0.9,0,1.4-0.4,1.4-1.2v-7.3c0-0.5-0.1-0.6-0.4-0.6h-1.3C59.3,59,58.9,59.6,58.7,61.6
		"/>
	<path fill="#FFFFFF" d="M80.4,68.8h-9.5v-0.7h0.2c0.9,0,1.4-0.4,1.4-1.2v-6.9c0-0.8-0.5-1.2-1.4-1.2h-0.2v-0.7h8.9l0.3,3.3H79
		L78.5,60c-0.2-0.7-0.6-1-1.1-1H75c-0.5,0-0.8,0.3-0.8,0.8v2.8c0,0.2,0.1,0.3,0.3,0.3h1.1c0.6,0,1.1-0.7,1.1-1.6v-0.4h0.8v4.8h-0.8
		v-0.4c0-0.9-0.5-1.6-1.1-1.6h-1.1c-0.2,0-0.3,0.1-0.3,0.3v3.3c0,0.5,0.3,0.8,0.8,0.8h2.5c0.8,0,1.2-0.4,1.4-1.5l0.3-1.3h1.1V68.8z"
		/>
	<path fill="#FFFFFF" d="M100.2,58.1V62h-1.1c-0.1-1.1-0.2-1.5-0.6-2c-0.6-0.8-1.4-1.1-2.6-1.1c-2.5,0-3.8,1.6-3.8,4.5
		c0,3.1,1.4,5,3.9,5c1.7,0,3-0.8,3.6-2.2h0.3l0.4,0.2v0.4c-1,1.5-2.8,2.4-4.8,2.4c-3.2,0-5.3-2.2-5.3-5.5c0-3.6,2-5.7,5.4-5.7
		c1.2,0,2,0.2,3.1,0.7l0.7-0.6H100.2z"/>
	<path fill="#FFFFFF" d="M104.8,63.5c0,3,1.4,4.8,3.7,4.8c2.3,0,3.7-1.9,3.7-4.8c0-2.9-1.5-4.8-3.7-4.8
		C106.3,58.8,104.8,60.6,104.8,63.5 M102.9,63.5c0-3.4,2.2-5.5,5.7-5.5c3.4,0,5.6,2.1,5.6,5.5c0,2.2-0.8,3.8-2.3,4.7
		c-0.9,0.6-1.8,0.8-3.3,0.8c-1.5,0-2.4-0.2-3.4-0.9c-0.5-0.3-0.9-0.6-1.2-1C103.3,66.3,102.9,65,102.9,63.5"/>
	<path fill="#FFFFFF" d="M116.4,68.8v-0.7h0.2c0.9,0,1.4-0.4,1.4-1.2v-6.9c0-0.8-0.5-1.2-1.4-1.2h-0.2v-0.7h4.9v0.7h-0.2
		c-0.9,0-1.4,0.4-1.4,1.2v7.1c0,0.5,0.3,0.8,0.8,0.8h2c1.2,0,1.7-0.5,1.8-2l0.1-0.7h1.1v3.6H116.4z"/>
	<path fill="#FFFFFF" d="M127.8,68.8v-0.7h0.2c0.9,0,1.4-0.4,1.4-1.2v-6.9c0-0.8-0.5-1.2-1.4-1.2h-0.2v-0.7h4.9v0.7h-0.2
		c-0.9,0-1.4,0.4-1.4,1.2v7.1c0,0.5,0.3,0.8,0.8,0.8h2c1.2,0,1.7-0.5,1.8-2l0.1-0.7h1.1v3.6H127.8z"/>
	<path fill="#FFFFFF" d="M148.7,68.8h-9.5v-0.7h0.2c0.9,0,1.4-0.4,1.4-1.2v-6.9c0-0.8-0.5-1.2-1.4-1.2h-0.2v-0.7h8.9l0.3,3.3h-1.1
		l-0.5-1.5c-0.2-0.7-0.6-1-1.1-1h-2.4c-0.5,0-0.8,0.3-0.8,0.8v2.8c0,0.2,0.1,0.3,0.3,0.3h1.1c0.6,0,1.1-0.7,1.1-1.6v-0.4h0.8v4.8
		H145v-0.4c0-0.9-0.5-1.6-1.1-1.6h-1.1c-0.2,0-0.3,0.1-0.3,0.3v3.3c0,0.5,0.3,0.8,0.8,0.8h2.5c0.8,0,1.2-0.4,1.4-1.5l0.3-1.3h1.1
		V68.8z"/>
	<path fill="#FFFFFF" d="M161.7,58.1V62h-1.1c-0.2-1.3-0.4-1.9-0.8-2.3c-0.5-0.6-1.3-0.9-2.4-0.9c-2.6,0-4,1.5-4,4.5
		c0,1.6,0.4,2.8,1.1,3.7c0.7,0.9,1.6,1.3,3.2,1.3c1.5,0,2.2-0.3,2.2-0.9v-1.5c0-0.8-0.5-1.2-1.4-1.2h-0.2v-0.7h4.9v0.7h-0.2
		c-0.9,0-1.4,0.4-1.4,1.2v2.7c-1.7,0.4-3,0.5-4.3,0.5c-1.9,0-3.2-0.4-4.2-1.3c-1.1-1-1.7-2.5-1.7-4.3c0-1.8,0.6-3.4,1.7-4.4
		c1-0.8,2.2-1.2,4-1.2c1.4,0,2.3,0.2,3,0.8l0.6-0.7H161.7z"/>
	<path fill="#FFFFFF" d="M174.6,68.8H165v-0.7h0.2c0.9,0,1.4-0.4,1.4-1.2v-6.9c0-0.8-0.5-1.2-1.4-1.2H165v-0.7h8.9l0.3,3.3h-1.1
		l-0.5-1.5c-0.2-0.7-0.6-1-1.1-1h-2.4c-0.5,0-0.8,0.3-0.8,0.8v2.8c0,0.2,0.1,0.3,0.3,0.3h1.1c0.6,0,1.1-0.7,1.1-1.6v-0.4h0.8v4.8
		h-0.8v-0.4c0-0.9-0.5-1.6-1.1-1.6h-1.1c-0.2,0-0.3,0.1-0.3,0.3v3.3c0,0.5,0.3,0.8,0.8,0.8h2.5c0.8,0,1.2-0.4,1.4-1.5l0.3-1.3h1.1
		V68.8z"/>
</g>
</svg>
